<svg id="Layer_1" data-name="Layer 1" xmlns="http://www.w3.org/2000/svg" xmlns:xlink="http://www.w3.org/1999/xlink" viewBox="0 0 1000 1000"><defs><style>.cls-1{fill:url(#linear-gradient);}.cls-2{fill:url(#Orange_Yellow);}.cls-3{fill:url(#Orange_Yellow-2);}</style><linearGradient id="linear-gradient" x1="136.24" y1="500.73" x2="863.94" y2="500.73" gradientUnits="userSpaceOnUse"><stop offset="0" stop-color="#f05136"/><stop offset="0.1" stop-color="#f3682e"/><stop offset="0.27" stop-color="#f68a22"/><stop offset="0.44" stop-color="#f9a518"/><stop offset="0.62" stop-color="#fbb811"/><stop offset="0.81" stop-color="#fdc30d"/><stop offset="1" stop-color="#fdc70c"/></linearGradient><linearGradient id="Orange_Yellow" x1="136.54" y1="719.17" x2="864.07" y2="719.17" gradientUnits="userSpaceOnUse"><stop offset="0" stop-color="#fff33b"/><stop offset="0.04" stop-color="#fee72e"/><stop offset="0.12" stop-color="#fed51b"/><stop offset="0.2" stop-color="#fdca10"/><stop offset="0.28" stop-color="#fdc70c"/><stop offset="0.67" stop-color="#f3903f"/><stop offset="0.89" stop-color="#ed683c"/><stop offset="1" stop-color="#e93e3a"/></linearGradient><linearGradient id="Orange_Yellow-2" x1="135.94" y1="280.85" x2="863.43" y2="280.85" xlink:href="#Orange_Yellow"/></defs><title>MedProve Icon</title><g id="_Group_" data-name="&lt;Group&gt;"><path id="_Path_" data-name="&lt;Path&gt;" class="cls-1" d="M863.94,438.38,863,659.6c-2.09,12.91-8.17,32.41-25.18,52.89L396.74,617.7s0,0,0,0l-260.45-56V354.17A118.31,118.31,0,0,1,162.66,289l431,92.43,270.11,56.94Z"/><path id="_Path_2" data-name="&lt;Path&gt;" class="cls-2" d="M863,659.6c-2.09,12.91-8.17,32.41-25.18,52.89-17.19,20.69-45.58,42.37-92.35,59.13-127.19,45.62-324.24,95.13-379.09,112.61S199.13,948,136.84,1000V806.54s-7.48-59.6,52.37-103.93c0,0,51.95-38.22,207.48-84.91,0,0,0,0,0,0,30.36-9.15,64.64-18.6,103.25-28.13,234.84-58,313.64-114.88,362.89-150.45.34-.26.73-.51,1.07-.77V644.08A63.41,63.41,0,0,1,863,659.6Z"/><path id="_Path_3" data-name="&lt;Path&gt;" class="cls-3" d="M744.88,333.3c-44.81,16.08-98.29,32.62-151.18,48.1-97.22,28.43-192.39,53.19-227.92,64.51-54.85,17.44-167.29,63.75-229.54,115.78V368.23a75.77,75.77,0,0,1,0-14.07A118.31,118.31,0,0,1,162.66,289a140.16,140.16,0,0,1,26-24.67s74.22-54.6,310.77-113S814.14,35.57,863.3,0V205.77S872.07,287.73,744.88,333.3Z"/></g></svg>