<?xml version="1.0" encoding="utf-8"?>
<!-- Generator: Adobe Illustrator 21.1.0, SVG Export Plug-In . SVG Version: 6.00 Build 0)  -->
<svg version="1.1" id="Layer_1" xmlns="http://www.w3.org/2000/svg"  x="0px" y="0px"
	 viewBox="0 0 1800.2 396.8" style="enable-background:new 0 0 1800.2 396.8;" xml:space="preserve">
<style type="text/css">
	.st0{fill:#FBB040;}
	.st1{fill:none;stroke:#969696;stroke-width:0.25;stroke-miterlimit:10;}
	.st2{fill:none;stroke:#545554;stroke-width:0.25;stroke-miterlimit:10;}
	.st3{fill:none;stroke:#727373;stroke-width:0.25;stroke-miterlimit:10;stroke-dasharray:1.9475,1.9475;}
	.st4{fill:none;stroke:#FFFFFF;stroke-width:0.25;stroke-miterlimit:10;stroke-dasharray:3.027,3.027;}
	.st5{fill:none;stroke:#58595B;stroke-width:0.25;stroke-miterlimit:10;}
	.st6{fill:none;stroke:#808285;stroke-miterlimit:10;}
	.st7{fill:none;stroke:#A7A9AC;stroke-miterlimit:10;}
	.st8{fill:#D1D3D4;}
	.st9{fill:none;stroke:#352716;stroke-width:0.25;stroke-miterlimit:10;}
	.st10{fill:none;stroke:#000000;stroke-width:0.25;stroke-miterlimit:10;}
	.st11{fill:none;stroke:#000000;stroke-width:0.25;stroke-linecap:round;stroke-miterlimit:10;}
	.st12{fill:none;stroke:#828282;stroke-width:0.1;stroke-miterlimit:10;}
	.st13{fill:none;stroke:#000000;stroke-width:0.1;stroke-miterlimit:10;}
	.st14{fill:none;stroke:#7F7F7F;stroke-width:0.25;stroke-linecap:round;stroke-miterlimit:10;}
	.st15{fill:none;stroke:#000000;stroke-width:0.75;stroke-miterlimit:10;}
	.st16{fill:#322B31;}
	.st17{fill:none;stroke:#7F7F7F;stroke-width:0.25;stroke-miterlimit:10;}
	.st18{fill:#FFFFFF;}
</style>
<g id="XMLID_147_">
	<g id="XMLID_277_">
		<g id="XMLID_299_">
			<polygon id="XMLID_303_" class="st0" points="1630.1,62.1 1800.2,0 1800.2,51.5 1630.1,113.5 			"/>
		</g>
		<g id="XMLID_278_">
			<polygon id="XMLID_298_" class="st0" points="1630.1,134.8 1800.2,72.7 1800.2,124.2 1630.1,186.1 			"/>
		</g>
	</g>
	<g id="XMLID_148_">
		<g id="XMLID_246_">
			<g id="XMLID_261_">
				<path id="XMLID_274_" class="st16" d="M720.9,291.1c-3.5-3.4-5.2-7.7-5.2-12.7V46.2c0-5.3,1.7-9.5,5.2-12.9
					c3.5-3.3,7.7-5,12.8-5h69.2c17.1,0,32.3,3.8,45.8,11.3s24,18.1,31.5,31.6c7.5,13.5,11.2,28.8,11.2,46c0,16.7-3.7,31.6-11.2,44.6
					c-7.5,13-18,23.2-31.5,30.5c-13.5,7.3-28.8,11-45.8,11h-51.2v75.1c0,5-1.7,9.3-5,12.7c-3.3,3.4-7.7,5.1-13,5.1
					C728.6,296.3,724.4,294.6,720.9,291.1z M802.9,170.4c15.7,0,28.6-5,38.7-14.9c10.1-9.9,15.2-22.7,15.2-38.3
					c0-16.2-5.1-29.6-15.2-40.1c-10.1-10.5-23.1-15.8-38.7-15.8h-51.2v109.1H802.9z"/>
				<path id="XMLID_272_" class="st16" d="M1029.8,112c6.9,3.7,10.4,8.2,10.4,13.7c0,1.6-0.1,2.7-0.3,3.4c-2.1,7.3-6.7,11-13.8,11
					c-1.2,0-2.9-0.2-5.2-0.7c-9.2-1.6-16.7-2.4-22.5-2.4c-16.6,0-30,3.8-40.1,11.3c-10.1,7.5-15.2,17.7-15.2,30.5v100.2
					c0,5.5-1.4,9.7-4.3,12.7c-2.9,3-7.2,4.5-13,4.5c-5.5,0-9.8-1.4-12.8-4.3c-3-2.9-4.5-7.1-4.5-12.9V125.8c0-5.5,1.5-9.7,4.5-12.7
					c3-3,7.3-4.5,12.8-4.5c11.5,0,17.3,5.7,17.3,17.2v6.5c6.9-8,15.4-14.3,25.6-18.9c10.1-4.6,21-6.9,32.5-6.9
					C1013.4,106.6,1022.9,108.4,1029.8,112z"/>
				<path id="XMLID_269_" class="st16" d="M1082.7,285.5c-14.5-8.1-25.8-19.4-33.9-33.8c-8.1-14.4-12.1-30.8-12.1-49.1
					c0-18.5,4-35,12.1-49.4c8.1-14.4,19.4-25.7,33.9-33.8c14.5-8.1,31-12.2,49.4-12.2c18.2,0,34.5,4.1,48.9,12.2
					c14.4,8.1,25.7,19.4,33.9,33.8c8.2,14.4,12.3,30.9,12.3,49.4c0,18.3-4,34.7-12.1,49.1c-8.1,14.4-19.3,25.7-33.7,33.8
					c-14.4,8.1-30.8,12.2-49.3,12.2C1113.7,297.6,1097.2,293.6,1082.7,285.5z M1163.8,258.5c9.3-5.5,16.6-13.1,21.8-22.8
					c5.2-9.7,7.8-20.8,7.8-33.1c0-12.4-2.6-23.4-7.8-33.3c-5.2-9.8-12.4-17.5-21.8-23c-9.3-5.5-19.9-8.2-31.6-8.2
					c-11.8,0-22.3,2.7-31.6,8.2c-9.3,5.5-16.7,13.2-22,23c-5.3,9.8-8,20.9-8,33.3c0,12.4,2.6,23.4,8,33.1c5.3,9.7,12.6,17.3,22,22.8
					c9.3,5.5,19.9,8.2,31.6,8.2C1143.9,266.8,1154.4,264,1163.8,258.5z"/>
				<path id="XMLID_267_" class="st16" d="M1404.5,116.7c1.6,2.4,2.4,5.1,2.4,8.1c0,2.1-0.6,4.2-1.7,6.5l-73.3,153.4
					c-3.5,7.5-8.8,11.3-15.9,11.3c-3.9,0-7.1-0.9-9.7-2.6c-2.5-1.7-4.8-4.6-6.9-8.7l-73.3-153.4c-0.9-1.8-1.4-3.9-1.4-6.2
					c0-6.2,3.2-10.9,9.7-14.1c2.1-1.1,4.5-1.7,7.3-1.7c2.8,0,5.4,0.7,8,2.2c2.5,1.5,4.5,3.6,5.9,6.3l60.2,128.7l59.5-128.7
					c1.4-2.7,3.4-4.9,6.1-6.3c2.6-1.5,5.5-2.2,8.5-2.2c3,0,5.6,0.6,8,1.7C1400.5,112.4,1402.8,114.3,1404.5,116.7z"/>
				<path id="XMLID_262_" class="st16" d="M1581.6,210.3c-3,2.9-6.8,4.3-11.4,4.3h-131.4c2.5,16,9.9,28.9,22,38.8
					c12.1,9.8,26.9,14.8,44.4,14.8c6.9,0,14.1-1.3,21.6-3.8c7.5-2.5,13.7-5.6,18.5-9.3c3.2-2.5,7-3.8,11.4-3.8
					c4.4,0,7.8,1.1,10.4,3.4c4.1,3.4,6.2,7.3,6.2,11.7c0,4.1-1.8,7.5-5.5,10.3c-7.8,6.2-17.6,11.2-29.2,15.1
					c-11.6,3.9-22.8,5.8-33.4,5.8c-18.9,0-35.8-4.1-50.8-12.2c-15-8.1-26.7-19.4-35.1-33.8c-8.4-14.4-12.6-30.8-12.6-49.1
					c0-18.3,4-34.7,11.9-49.2c8-14.5,19-25.8,33.2-34c14.2-8.1,30.3-12.2,48.2-12.2c17.7,0,33.1,3.9,46,11.7
					c12.9,7.8,22.8,18.6,29.7,32.6c6.9,14,10.4,30,10.4,48C1586.1,203.9,1584.6,207.5,1581.6,210.3z M1459.1,150.5
					c-10.5,9.2-17.1,21.4-19.9,36.7h115.1c-2.1-15.3-7.8-27.6-17.3-36.7c-9.5-9.1-21.8-13.7-37-13.7
					C1483.2,136.7,1469.6,141.3,1459.1,150.5z"/>
			</g>
			<path id="XMLID_259_" class="st16" d="M266.2,32.8c2.5,2.5,3.8,5.7,3.8,9.6v241.2c0,3.7-1.3,6.8-3.8,9.4
				c-2.5,2.6-5.7,3.9-9.3,3.9c-3.9,0-7.2-1.3-9.9-3.9c-2.7-2.6-4-5.8-4-9.4V89.4l-96.1,194.9c-2.8,4.3-6.7,6.5-11.8,6.5
				c-5.8,0-9.9-2.7-12.4-8.2L27,92.5v191.1c0,3.7-1.3,6.8-3.8,9.4c-2.5,2.6-5.8,3.9-9.7,3.9c-3.7,0-6.9-1.3-9.5-3.9
				c-2.7-2.6-4-5.8-4-9.4V42.4c0-3.9,1.3-7.1,4-9.6c2.6-2.5,5.8-3.8,9.5-3.8c5.3,0,9.3,2.3,12.1,6.9L136.2,254L244.8,35.8
				c2.8-4.6,6.8-6.9,12.1-6.9C260.6,29,263.7,30.2,266.2,32.8z"/>
			<path id="XMLID_250_" class="st16" d="M429.2,118.7c13.1,7.9,23.3,18.8,30.6,32.8c7.3,14,10.9,29.8,10.9,47.7
				c0,3.7-1.2,6.6-3.5,8.7c-2.3,2.2-5.3,3.3-9,3.3H318.6c1.8,18.8,9.2,34,22.1,45.6c12.9,11.7,29,17.5,48.4,17.5
				c8.3,0,16.7-1.4,25.1-4.3c8.4-2.9,15.2-6.5,20.2-10.8c3-2.3,6.1-3.4,9.3-3.4c2.5,0,5.1,0.9,7.6,2.7c3,2.7,4.5,5.8,4.5,9.3
				c0,3-1.3,5.6-3.8,7.9c-7.6,6.4-17.3,11.7-29,16c-11.8,4.2-23.1,6.3-33.9,6.3c-18.4,0-34.9-4.1-49.4-12.2
				c-14.5-8.1-25.9-19.4-34.1-34c-8.2-14.5-12.3-30.9-12.3-49.2c0-18.5,3.9-35,11.6-49.6c7.7-14.5,18.4-25.8,32.2-34
				c13.7-8.1,29.3-12.2,46.8-12.2C401,106.9,416.1,110.8,429.2,118.7z M340.4,146.7c-11.5,10.8-18.6,24.9-21.1,42.5h126.5
				c-1.8-17.6-8.3-31.8-19.4-42.5c-11.1-10.7-25.2-16.1-42.5-16.1C366.4,130.6,351.9,135.9,340.4,146.7z"/>
			<path id="XMLID_247_" class="st16" d="M676.1,121.7v80.6c0,17.8-4.2,34.1-12.6,48.7c-8.4,14.6-19.9,26.1-34.6,34.5
				c-14.6,8.4-30.9,12.5-48.9,12.5s-34.3-4.2-48.9-12.5c-14.6-8.3-26.2-19.8-34.6-34.5c-8.4-14.6-12.6-30.9-12.6-48.7
				s4.1-34,12.3-48.5c8.2-14.5,19.4-26,33.5-34.3c14.2-8.3,30-12.5,47.5-12.5c15,0,28.7,3.1,41.1,9.4c12.4,6.3,22.7,14.9,30.8,25.9
				V41.7c0-3.9,1.3-7.1,3.8-9.6c2.5-2.5,5.8-3.8,9.7-3.8c3.9,0,7.1,1.3,9.5,3.8c2.4,2.5,3.6,5.7,3.6,9.6v76.8
				C675.9,119.2,676.1,120.3,676.1,121.7z M615.6,264.5c10.6-6.3,19-14.9,25.1-25.7c6.1-10.9,9.2-23,9.2-36.5c0-3.9-0.1-6.7-0.3-8.6
				c-0.2-0.5-0.3-1-0.3-1.7c-2.3-17.8-9.9-32.5-22.6-43.9c-12.8-11.4-28.3-17.2-46.5-17.2c-13.1,0-25.1,3.1-35.8,9.3
				c-10.7,6.2-19.1,14.7-25.2,25.6c-6.1,10.9-9.2,23-9.2,36.5c0,13.5,3.1,25.7,9.2,36.5c6.1,10.9,14.5,19.4,25.2,25.7
				c10.7,6.3,22.6,9.4,35.8,9.4C593.1,274,605,270.8,615.6,264.5z"/>
		</g>
		<g id="XMLID_151_">
			<g id="XMLID_232_">
				<path id="XMLID_245_" class="st16" d="M37.4,341H5.5c-1.3,0-2.5,0.4-3.4,1.3c-1,0.9-1.4,2-1.4,3.4v45.6c0,1.3,0.5,2.4,1.4,3.4
					c0.9,0.9,2.1,1.3,3.4,1.3c1.3,0,2.5-0.5,3.4-1.3c0.9-0.9,1.4-2,1.4-3.4v-18.6h19.1c1.3,0,2.5-0.4,3.4-1.2
					c0.9-0.8,1.4-1.9,1.4-3.2c0-1.3-0.5-2.4-1.4-3.2c-0.9-0.8-2-1.2-3.4-1.2H10.3v-14h27c1.4,0,2.5-0.4,3.4-1.2
					c0.9-0.8,1.4-1.9,1.4-3.2c0-1.3-0.5-2.4-1.4-3.3C39.9,341.4,38.8,341,37.4,341z"/>
				<path id="XMLID_240_" class="st16" d="M123,373.3c2.5-1.3,4.6-3.1,6.2-5.4c1.8-2.7,2.8-5.7,2.8-9.2c0-3.4-0.8-6.5-2.5-9.2
					c-1.6-2.7-4-4.8-6.9-6.3c-2.9-1.5-6.2-2.2-9.9-2.2H100c-1.3,0-2.5,0.4-3.4,1.3c-1,0.9-1.4,2-1.4,3.4v45.6c0,1.3,0.5,2.4,1.4,3.4
					c0.9,0.9,2.1,1.3,3.4,1.3c1.4,0,2.6-0.5,3.5-1.4c0.9-0.9,1.4-2,1.4-3.3v-15.6h8.5l11.8,18c1,1.4,2.4,2.2,4.2,2.2
					c1.4,0,2.5-0.4,3.4-1.2c0.9-0.8,1.3-1.9,1.3-3.1c0-1-0.3-2-0.9-2.9L123,373.3z M122.5,358.7c0,2.4-0.9,4.3-2.7,5.8
					c-1.9,1.6-4.2,2.3-7.1,2.3h-7.8v-17h7.8c2.9,0,5.2,0.8,7.1,2.5C121.6,354,122.5,356.1,122.5,358.7z"/>
				<path id="XMLID_234_" class="st16" d="M226,343.9c-4.4-2.4-9.5-3.6-15.1-3.6c-5.6,0-10.7,1.2-15.1,3.6c-4.4,2.4-7.9,5.8-10.4,10
					c-2.4,4.2-3.7,9.1-3.7,14.5c0,5.4,1.2,10.3,3.7,14.6c2.5,4.3,5.9,7.7,10.4,10c4.4,2.4,9.5,3.6,15.1,3.6c5.6,0,10.7-1.2,15.1-3.6
					c4.4-2.4,7.9-5.8,10.4-10c2.5-4.3,3.7-9.2,3.7-14.6c0-5.4-1.3-10.3-3.7-14.5C234,349.6,230.4,346.3,226,343.9z M230.7,368.4
					c0,3.6-0.9,7-2.5,9.9c-1.7,2.9-4,5.3-7,7c-3,1.7-6.4,2.6-10.2,2.6c-3.8,0-7.2-0.9-10.2-2.6c-3-1.7-5.4-4.1-7-7
					c-1.7-2.9-2.5-6.3-2.5-9.9c0-3.6,0.9-7,2.5-9.9c1.7-2.9,4-5.3,7-7c3-1.7,6.4-2.5,10.2-2.5c3.8,0,7.3,0.9,10.3,2.5
					c3,1.7,5.3,4,7,7C229.9,361.5,230.7,364.8,230.7,368.4z"/>
				<path id="XMLID_233_" class="st16" d="M347.6,341c-1.8,0-3.3,0.9-4.3,2.5L324,381.5L304,343.5c-1-1.6-2.4-2.5-4.3-2.5
					c-1.3,0-2.5,0.4-3.4,1.3c-0.9,0.9-1.4,2-1.4,3.4v45.6c0,1.3,0.5,2.4,1.4,3.4c0.9,0.9,2.1,1.3,3.4,1.3c1.3,0,2.5-0.5,3.4-1.3
					c0.9-0.9,1.4-2,1.4-3.4v-28l14.6,27.9c0.9,1.8,2.4,2.7,4.5,2.7c1.7,0,3.1-0.8,4.2-2.3l14.9-28.9v28.5c0,1.3,0.5,2.4,1.4,3.4
					c0.9,0.9,2.1,1.3,3.4,1.3c1.3,0,2.4-0.4,3.4-1.3c1-0.9,1.5-2,1.5-3.4v-45.6c0-1.3-0.5-2.4-1.4-3.4
					C350.1,341.4,349,341,347.6,341z"/>
			</g>
			<path id="XMLID_229_" class="st16" d="M507.7,343.9c-4.4-2.4-9.5-3.6-15.1-3.6h-13.1c-1.4,0-2.5,0.4-3.5,1.3
				c-1,0.9-1.5,2.1-1.5,3.5v46.7c0,1.4,0.5,2.5,1.5,3.4c1,0.9,2.1,1.4,3.5,1.4h13.1c5.6,0,10.7-1.2,15.1-3.6
				c4.4-2.4,7.9-5.8,10.4-10c2.5-4.3,3.7-9.1,3.7-14.5c0-5.4-1.2-10.3-3.7-14.5C515.7,349.7,512.2,346.3,507.7,343.9z M512.2,368.4
				c0,3.7-0.8,7.1-2.5,10.1c-1.6,2.9-4,5.2-6.9,6.9c-3,1.6-6.4,2.5-10.2,2.5h-8.1v-38.7h8.1c3.8,0,7.2,0.8,10.1,2.5
				c2.9,1.6,5.3,3.9,6.9,6.8C511.3,361.3,512.2,364.7,512.2,368.4z"/>
			<path id="XMLID_226_" class="st16" d="M597.4,343.5c-0.8-2.1-2.4-3.2-4.7-3.2c-2.1,0-3.7,1.1-4.7,3.1l-20.3,46.3
				c-0.3,0.7-0.5,1.4-0.5,2c0,1.3,0.5,2.4,1.4,3.4c0.9,1,2.1,1.4,3.5,1.4c1,0,1.8-0.3,2.7-0.8c0.8-0.5,1.5-1.2,1.9-2.2l3.8-8.9h24.3
				l3.7,8.9c0.4,0.9,1,1.7,1.9,2.2c0.8,0.5,1.7,0.8,2.7,0.8c1.4,0,2.6-0.5,3.5-1.4c1-0.9,1.5-2.1,1.5-3.4c0-0.6-0.1-1.2-0.5-2
				L597.4,343.5z M601.4,376.4h-17.2l8.7-20.2L601.4,376.4z"/>
			<path id="XMLID_225_" class="st16" d="M699.8,340.3h-38.7c-1.3,0-2.5,0.4-3.3,1.3c-0.9,0.9-1.4,2-1.4,3.3c0,1.3,0.5,2.4,1.4,3.3
				c0.9,0.8,2,1.3,3.3,1.3h14.4v42.4c0,1.4,0.5,2.5,1.5,3.4c1,0.9,2.1,1.4,3.5,1.4c1.4,0,2.6-0.5,3.5-1.4c1-0.9,1.5-2.1,1.5-3.4
				v-42.4h14.3c1.3,0,2.5-0.4,3.3-1.3c0.9-0.9,1.4-2,1.4-3.3c0-1.3-0.5-2.4-1.4-3.3C702.3,340.7,701.2,340.3,699.8,340.3z"/>
			<path id="XMLID_224_" class="st16" d="M943.5,340.3h-38.7c-1.3,0-2.5,0.4-3.3,1.3c-0.9,0.9-1.4,2-1.4,3.3c0,1.3,0.5,2.4,1.4,3.3
				c0.9,0.8,2,1.3,3.3,1.3h14.4v42.4c0,1.4,0.5,2.5,1.5,3.4c1,0.9,2.1,1.4,3.5,1.4c1.4,0,2.6-0.5,3.5-1.4c1-0.9,1.5-2.1,1.5-3.4
				v-42.4h14.3c1.3,0,2.5-0.4,3.3-1.3c0.9-0.9,1.4-2,1.4-3.3c0-1.3-0.5-2.4-1.4-3.3C945.9,340.7,944.8,340.3,943.5,340.3z"/>
			<path id="XMLID_223_" class="st16" d="M1207.3,340.3h-38.7c-1.3,0-2.5,0.4-3.3,1.3c-0.9,0.9-1.4,2-1.4,3.3c0,1.3,0.5,2.4,1.4,3.3
				c0.9,0.8,2,1.3,3.3,1.3h14.4v42.4c0,1.4,0.5,2.5,1.5,3.4c1,0.9,2.1,1.4,3.5,1.4c1.4,0,2.6-0.5,3.5-1.4c1-0.9,1.5-2.1,1.5-3.4
				v-42.4h14.3c1.3,0,2.5-0.4,3.3-1.3c0.9-0.9,1.4-2,1.4-3.3c0-1.3-0.5-2.4-1.4-3.3C1209.7,340.8,1208.6,340.3,1207.3,340.3z"/>
			<path id="XMLID_203_" class="st16" d="M1582.9,340.4h-38.7c-1.3,0-2.5,0.4-3.3,1.3c-0.9,0.9-1.4,2-1.4,3.3c0,1.3,0.5,2.4,1.4,3.3
				c0.9,0.8,2,1.3,3.3,1.3h14.4v42.4c0,1.4,0.5,2.5,1.5,3.4c1,0.9,2.1,1.4,3.5,1.4c1.4,0,2.6-0.5,3.5-1.4c1-0.9,1.5-2.1,1.5-3.4
				v-42.4h14.3c1.3,0,2.5-0.4,3.3-1.3c0.9-0.9,1.4-2,1.4-3.3c0-1.3-0.5-2.4-1.4-3.3C1585.4,340.8,1584.3,340.4,1582.9,340.4z"/>
			<path id="XMLID_197_" class="st16" d="M772.3,343.5c-0.8-2.1-2.4-3.2-4.7-3.2c-2.1,0-3.7,1.1-4.7,3.1l-20.3,46.3
				c-0.3,0.7-0.5,1.4-0.5,2c0,1.3,0.5,2.4,1.4,3.4c0.9,1,2.1,1.4,3.5,1.4c1,0,1.8-0.3,2.7-0.8c0.8-0.5,1.5-1.2,1.9-2.2l3.8-8.9h24.3
				l3.7,8.9c0.4,0.9,1,1.7,1.9,2.2c0.8,0.5,1.7,0.8,2.7,0.8c1.4,0,2.6-0.5,3.5-1.4c1-0.9,1.5-2.1,1.5-3.4c0-0.6-0.1-1.2-0.5-2
				L772.3,343.5z M776.3,376.4h-17.2l8.7-20.2L776.3,376.4z"/>
			<path id="XMLID_189_" class="st16" d="M1035.4,343.9c-4.4-2.4-9.5-3.6-15.1-3.6c-5.6,0-10.7,1.2-15.1,3.6
				c-4.4,2.4-7.9,5.8-10.4,10c-2.4,4.2-3.7,9.1-3.7,14.5c0,5.4,1.2,10.3,3.7,14.6c2.5,4.3,5.9,7.7,10.4,10c4.4,2.4,9.5,3.6,15.1,3.6
				c5.6,0,10.7-1.2,15.1-3.6c4.4-2.4,7.9-5.8,10.4-10c2.5-4.3,3.7-9.2,3.7-14.6c0-5.4-1.3-10.3-3.7-14.5
				C1043.4,349.6,1039.9,346.3,1035.4,343.9z M1040.1,368.4c0,3.6-0.9,7-2.5,9.9c-1.7,2.9-4,5.3-7,7c-3,1.7-6.4,2.6-10.2,2.6
				c-3.8,0-7.2-0.9-10.2-2.6c-3-1.7-5.4-4.1-7-7c-1.7-2.9-2.5-6.3-2.5-9.9c0-3.6,0.9-7,2.5-9.9c1.7-2.9,4-5.3,7-7
				c3-1.7,6.4-2.5,10.3-2.5c3.8,0,7.3,0.9,10.3,2.5c3,1.7,5.3,4,7,7C1039.3,361.5,1040.1,364.8,1040.1,368.4z"/>
			<path id="XMLID_154_" class="st16" d="M1289.9,373.3c2.5-1.3,4.6-3.1,6.1-5.4c1.8-2.6,2.7-5.7,2.7-9.1c0-3.4-0.8-6.5-2.5-9.2
				c-1.6-2.7-3.9-4.8-6.9-6.3c-2.9-1.5-6.2-2.2-9.8-2.2h-12.6c-1.3,0-2.5,0.4-3.4,1.3c-1,0.9-1.4,2-1.4,3.4v45.3
				c0,1.3,0.5,2.4,1.4,3.3c0.9,0.9,2.1,1.3,3.4,1.3c1.4,0,2.6-0.5,3.5-1.3c0.9-0.9,1.4-2,1.4-3.3v-15.5h8.4l11.7,17.9
				c1,1.4,2.4,2.2,4.1,2.2c1.4,0,2.5-0.4,3.4-1.2c0.9-0.8,1.3-1.9,1.3-3.1c0-1-0.3-1.9-0.9-2.9L1289.9,373.3z M1289.3,358.8
				c0,2.4-0.9,4.3-2.7,5.7c-1.9,1.5-4.2,2.3-7.1,2.3h-7.8V350h7.8c2.9,0,5.2,0.8,7.1,2.5C1288.4,354.1,1289.3,356.2,1289.3,358.8z"
				/>
			<path id="XMLID_153_" class="st16" d="M1394,341.2c-1.3,0-2.5,0.4-3.4,1.3c-1,0.9-1.4,2-1.4,3.4v31.2c0,2.1-0.6,4-1.7,5.7
				c-1.2,1.7-2.8,3-4.9,4c-2.1,1-4.6,1.5-7.3,1.5c-2.9,0-5.4-0.5-7.6-1.5c-2.2-1-3.9-2.3-5.1-4c-1.2-1.7-1.8-3.5-1.8-5.7v-31.2
				c0-1.4-0.5-2.5-1.4-3.4c-0.9-0.9-2.1-1.3-3.4-1.3c-1.3,0-2.5,0.4-3.4,1.3c-1,0.9-1.4,2-1.4,3.4v31.2c0,3.8,1.1,7.3,3.1,10.3
				c2.1,3,5,5.3,8.6,7c3.6,1.6,7.8,2.5,12.4,2.5c4.5,0,8.5-0.8,12-2.5c3.6-1.7,6.4-4,8.4-7c2-3,3-6.5,3-10.3v-31.2
				c0-1.4-0.5-2.5-1.4-3.4C1396.5,341.6,1395.3,341.2,1394,341.2z"/>
			<path id="XMLID_152_" class="st16" d="M1490.4,368.6c-3.3-2.9-7.9-4.6-13.7-5.1c-4.8-0.5-8.1-1.4-9.9-2.8
				c-1.7-1.3-2.5-2.9-2.5-4.9c0-2.1,0.9-3.6,2.7-4.7c2-1.2,4.7-1.8,8-1.8c2.7,0,4.9,0.5,6.6,1.4c1.7,0.9,3.2,2.4,4.3,4.1
				c0.4,0.8,1.1,1.4,1.9,1.8c0.8,0.4,1.6,0.6,2.5,0.6c0.9,0,1.7-0.2,2.5-0.7c1.6-1.1,1.9-2.4,1.9-3.4c0-1-0.4-2-1-3.1
				c-2-3-4.5-5.4-7.4-7.1c-2.9-1.7-6.5-2.5-10.8-2.5c-3.8,0-7.3,0.6-10.4,1.7c-3.2,1.2-5.7,2.9-7.5,5.1c-1.9,2.3-2.8,5-2.8,8.1
				c0,4.4,1.8,8.1,5.4,11.1c3.5,2.8,8.3,4.6,14.3,5.1c3.9,0.4,6.9,1.4,8.7,3c1.8,1.6,2.7,3.4,2.7,5.6c0,2.3-1,4-3.1,5.3
				c-2.2,1.4-5,2.1-8.3,2.1c-2.8,0-5.4-0.6-7.7-1.7c-2.2-1.1-3.7-2.4-4.4-3.8c-0.4-0.9-1.1-1.7-2-2.2c-0.9-0.5-1.8-0.8-2.8-0.8
				c-0.4,0-0.7,0-1,0.1c-1.1,0.2-2,0.7-2.7,1.3c-0.7,0.7-1.1,1.6-1.1,2.6c0,0.5,0.1,1.1,0.5,1.8c1.5,3.4,4.3,6.2,8.2,8.3
				c3.9,2,8.2,3.1,12.9,3.1c3.6,0,7-0.6,10.1-1.8c3.2-1.2,5.8-3.1,7.8-5.5c2-2.5,3-5.5,3-9C1495.4,375.4,1493.7,371.5,1490.4,368.6z
				"/>
		</g>
	</g>
</g>
</svg>
