<svg id="Layer_1" data-name="Layer 1" xmlns="http://www.w3.org/2000/svg" xmlns:xlink="http://www.w3.org/1999/xlink" viewBox="0 0 1814.48 425.17"><defs><style>.cls-1{fill:url(#linear-gradient);}.cls-2{fill:url(#linear-gradient-2);}.cls-3{fill:url(#linear-gradient-3);}.cls-4{fill:#fff;}</style><linearGradient id="linear-gradient" x1="1644.39" y1="117.12" x2="1814.59" y2="117.12" gradientUnits="userSpaceOnUse"><stop offset="0" stop-color="#f05136"/><stop offset="0.1" stop-color="#f3682e"/><stop offset="0.27" stop-color="#f68a22"/><stop offset="0.44" stop-color="#f9a518"/><stop offset="0.62" stop-color="#fbb811"/><stop offset="0.81" stop-color="#fdc30d"/><stop offset="1" stop-color="#fdc70c"/></linearGradient><linearGradient id="linear-gradient-2" x1="1644.46" y1="168.21" x2="1814.63" y2="168.21" gradientUnits="userSpaceOnUse"><stop offset="0" stop-color="#fff33b"/><stop offset="0.01" stop-color="#feef3b"/><stop offset="0.11" stop-color="#facd3d"/><stop offset="0.22" stop-color="#f7b23e"/><stop offset="0.32" stop-color="#f59f3e"/><stop offset="0.43" stop-color="#f3943f"/><stop offset="0.55" stop-color="#f3903f"/><stop offset="1" stop-color="#e93e3a"/></linearGradient><linearGradient id="linear-gradient-3" x1="1644.32" y1="65.69" x2="1814.48" y2="65.69" xlink:href="#linear-gradient-2"/></defs><title>medprove-logo-white</title><g id="_Group_" data-name="&lt;Group&gt;"><g id="_Group_2" data-name="&lt;Group&gt;"><path id="_Path_" data-name="&lt;Path&gt;" class="cls-1" d="M1814.59,102.54l-.21,51.74a25.9,25.9,0,0,1-5.89,12.37l-103.17-22.17s0,0,0,0l-60.92-13.1V82.84a27.67,27.67,0,0,1,6.18-15.25l100.82,21.62,63.17,13.32Z"/><path id="_Path_2" data-name="&lt;Path&gt;" class="cls-2" d="M1814.38,154.28a25.9,25.9,0,0,1-5.89,12.37c-4,4.84-10.66,9.91-21.6,13.83-29.75,10.67-75.84,22.25-88.67,26.34s-39.12,14.91-53.69,27.08V188.65s-1.75-13.94,12.25-24.31c0,0,12.15-8.94,48.53-19.86,0,0,0,0,0,0,7.1-2.14,15.12-4.35,24.15-6.58,54.93-13.57,73.36-26.87,84.88-35.19l.25-.18v48.12A14.83,14.83,0,0,1,1814.38,154.28Z"/><path id="_Path_3" data-name="&lt;Path&gt;" class="cls-3" d="M1786.75,78c-10.48,3.76-23,7.63-35.36,11.25-22.74,6.65-45,12.44-53.31,15.09-12.83,4.08-39.13,14.91-53.69,27.08V86.13a17.72,17.72,0,0,1,0-3.29,27.67,27.67,0,0,1,6.18-15.25,32.78,32.78,0,0,1,6.07-5.77S1674,49,1729.33,35.38,1802.95,8.32,1814.45,0V48.13S1816.5,67.3,1786.75,78Z"/></g><g id="_Group_3" data-name="&lt;Group&gt;"><g id="_Group_4" data-name="&lt;Group&gt;"><g id="_Group_5" data-name="&lt;Group&gt;"><g id="_Group_6" data-name="&lt;Group&gt;"><path id="_Compound_Path_" data-name="&lt;Compound Path&gt;" class="cls-4" d="M720.92,319.46a17.18,17.18,0,0,1-5.19-12.69V74.51a17,17,0,0,1,5.19-12.87,17.78,17.78,0,0,1,12.79-5h69.15q25.58,0,45.81,11.32a80,80,0,0,1,31.46,31.56q11.23,20.25,11.24,46,0,25-11.24,44.6a79,79,0,0,1-31.46,30.53q-20.23,11-45.81,11H751.69v75.13a17.5,17.5,0,0,1-5,12.69,18.69,18.69,0,0,1-25.76,0ZM802.86,198.7q23.51,0,38.72-14.92t15.21-38.25q0-24.36-15.21-40.14T802.86,89.6H751.69V198.7Z"/><path id="_Compound_Path_2" data-name="&lt;Compound Path&gt;" class="cls-4" d="M1029.83,140.38q10.37,5.49,10.37,13.72a12.08,12.08,0,0,1-.35,3.43q-3.11,11-13.83,11a28.93,28.93,0,0,1-5.19-.69,137.79,137.79,0,0,0-22.47-2.4q-24.89,0-40.11,11.32T943,207.28V307.45q0,8.23-4.32,12.69t-13,4.46q-8.3,0-12.79-4.29t-4.49-12.87V154.1q0-8.23,4.49-12.69t12.79-4.46q17.29,0,17.29,17.15v6.52a72.94,72.94,0,0,1,25.59-18.87,78.15,78.15,0,0,1,32.5-6.86Q1019.46,134.89,1029.83,140.38Z"/><path id="_Compound_Path_3" data-name="&lt;Compound Path&gt;" class="cls-4" d="M1082.67,313.8A86.36,86.36,0,0,1,1048.79,280q-12.11-21.61-12.1-49.06,0-27.79,12.1-49.4a86.4,86.4,0,0,1,33.88-33.79q21.78-12.17,49.44-12.18,27.31,0,48.92,12.18a88,88,0,0,1,33.88,33.79q12.27,21.61,12.27,49.4,0,27.45-12.1,49.06a86.74,86.74,0,0,1-33.71,33.79Q1159.77,326,1132.12,326T1082.67,313.8Zm81.08-26.93a57.08,57.08,0,0,0,21.78-22.81q7.78-14.58,7.78-33.11t-7.78-33.28a56.85,56.85,0,0,0-21.78-23,64.89,64.89,0,0,0-63.27,0,58,58,0,0,0-22,23q-8,14.76-8,33.28t8,33.11a58.27,58.27,0,0,0,22,22.81,64.89,64.89,0,0,0,63.27,0Z"/><path id="_Compound_Path_4" data-name="&lt;Compound Path&gt;" class="cls-4" d="M1404.46,145a14.17,14.17,0,0,1,2.42,8.06,14.53,14.53,0,0,1-1.73,6.52l-73.3,153.35q-5.19,11.32-15.9,11.32a16.9,16.9,0,0,1-9.68-2.57q-3.81-2.57-6.92-8.75l-73.3-153.35a13.5,13.5,0,0,1-1.38-6.18q0-9.26,9.68-14.07a14.82,14.82,0,0,1,7.26-1.72,15.52,15.52,0,0,1,8,2.23,15,15,0,0,1,5.88,6.35l60.16,128.65,59.47-128.65a14.7,14.7,0,0,1,6.05-6.35,17,17,0,0,1,8.47-2.23,17.7,17.7,0,0,1,8,1.72A16.24,16.24,0,0,1,1404.46,145Z"/><path id="_Compound_Path_5" data-name="&lt;Compound Path&gt;" class="cls-4" d="M1581.65,238.67a15.85,15.85,0,0,1-11.41,4.29H1438.85q3.8,24,22,38.77t44.43,14.75a67.71,67.71,0,0,0,21.61-3.77,64.65,64.65,0,0,0,18.5-9.26,18,18,0,0,1,11.41-3.77q6.56,0,10.37,3.43,6.22,5.15,6.22,11.66,0,6.18-5.53,10.29-11.76,9.26-29.22,15.1a105.18,105.18,0,0,1-33.36,5.83q-28.36,0-50.83-12.18A88.71,88.71,0,0,1,1419.32,280q-12.63-21.61-12.62-49.06t11.93-49.23a85.91,85.91,0,0,1,33.19-34q21.26-12.17,48.23-12.18,26.62,0,46,11.66a77.18,77.18,0,0,1,29.73,32.59q10.37,20.93,10.37,48A14.31,14.31,0,0,1,1581.65,238.67ZM1459.08,178.8q-15.74,13.73-19.88,36.71h115.14q-3.11-23-17.29-36.71t-37-13.72Q1474.81,165.08,1459.08,178.8Z"/></g><path id="_Compound_Path_6" data-name="&lt;Compound Path&gt;" class="cls-4" d="M266.23,61.09A13,13,0,0,1,270,70.7V311.88a13.12,13.12,0,0,1-3.8,9.43,12.47,12.47,0,0,1-9.34,3.95,13.42,13.42,0,0,1-9.85-3.95,12.81,12.81,0,0,1-4-9.43V117.7L146.94,312.57a13.17,13.17,0,0,1-11.76,6.52q-8.65,0-12.45-8.23L27,120.79V311.88a13.11,13.11,0,0,1-3.8,9.43,12.87,12.87,0,0,1-9.68,3.95A13,13,0,0,1,4,321.31a12.81,12.81,0,0,1-4-9.43V70.7a12.67,12.67,0,0,1,4-9.61,13.33,13.33,0,0,1,9.51-3.77,13.32,13.32,0,0,1,12.1,6.86L136.23,282.38,244.79,64.18a13.31,13.31,0,0,1,12.1-6.86A12.77,12.77,0,0,1,266.23,61.09Z"/><path id="_Compound_Path_7" data-name="&lt;Compound Path&gt;" class="cls-4" d="M429.25,147.07a81,81,0,0,1,30.6,32.76q10.89,20.93,10.89,47.69a11.46,11.46,0,0,1-3.46,8.75,12.56,12.56,0,0,1-9,3.26H318.61q2.76,28.13,22.13,45.63t48.41,17.5a77.47,77.47,0,0,0,25.07-4.29q12.62-4.29,20.23-10.81a15.21,15.21,0,0,1,9.34-3.43,13,13,0,0,1,7.61,2.74q4.49,4.12,4.49,9.26a10.37,10.37,0,0,1-3.8,7.89q-11.41,9.61-29,16a99.83,99.83,0,0,1-33.88,6.35q-27.67,0-49.44-12.18a87.2,87.2,0,0,1-34.06-34q-12.28-21.78-12.27-49.23,0-27.79,11.58-49.57a84.91,84.91,0,0,1,32.15-34q20.57-12.17,46.85-12.18Q409.54,135.23,429.25,147.07Zm-88.86,28q-17.29,16.13-21.09,42.54H445.84q-2.77-26.41-19.36-42.54T384,158.9Q357.67,158.9,340.39,175Z"/><path id="_Compound_Path_8" data-name="&lt;Compound Path&gt;" class="cls-4" d="M676.07,150v80.62q0,26.76-12.62,48.72a91.48,91.48,0,0,1-34.58,34.48q-22,12.53-48.92,12.52T531,313.8a91.41,91.41,0,0,1-34.58-34.48q-12.63-22-12.62-48.72t12.27-48.54a90.81,90.81,0,0,1,33.54-34.31q21.26-12.52,47.54-12.52a89.94,89.94,0,0,1,41.14,9.43,85.43,85.43,0,0,1,30.77,25.9V70a13,13,0,0,1,3.8-9.61,13.17,13.17,0,0,1,9.68-3.77,12.6,12.6,0,0,1,9.51,3.77A13.3,13.3,0,0,1,675.72,70V146.9A10.43,10.43,0,0,1,676.07,150ZM615.56,292.87a68.31,68.31,0,0,0,25.07-25.73,73.27,73.27,0,0,0,9.16-36.54,77,77,0,0,0-.35-8.58,3.76,3.76,0,0,1-.35-1.72q-3.46-26.76-22.65-43.91t-46.5-17.15a70.38,70.38,0,0,0-35.79,9.26,66.65,66.65,0,0,0-25.24,25.56,77.43,77.43,0,0,0,0,73.07,67.85,67.85,0,0,0,25.24,25.73,69.36,69.36,0,0,0,35.79,9.43A68.45,68.45,0,0,0,615.56,292.87Z"/></g><g id="_Group_7" data-name="&lt;Group&gt;"><g id="_Group_8" data-name="&lt;Group&gt;"><path id="_Path_4" data-name="&lt;Path&gt;" class="cls-4" d="M37.38,369.32H5.48a4.89,4.89,0,0,0-3.42,1.29A4.44,4.44,0,0,0,.62,374v45.55A4.47,4.47,0,0,0,2,422.92a4.81,4.81,0,0,0,3.43,1.34,4.81,4.81,0,0,0,3.43-1.34,4.47,4.47,0,0,0,1.43-3.35V401H29.41a4.91,4.91,0,0,0,3.37-1.21,4.34,4.34,0,0,0,0-6.43,4.91,4.91,0,0,0-3.37-1.21H10.34v-14h27a5,5,0,0,0,3.4-1.17,4.11,4.11,0,0,0,1.39-3.18,4.25,4.25,0,0,0-1.37-3.27A4.87,4.87,0,0,0,37.38,369.32Z"/><path id="_Compound_Path_9" data-name="&lt;Compound Path&gt;" class="cls-4" d="M123,401.62a16.72,16.72,0,0,0,6.16-5.4,15.85,15.85,0,0,0,2.75-9.15,17.49,17.49,0,0,0-2.47-9.23,16.79,16.79,0,0,0-6.9-6.3,21.75,21.75,0,0,0-9.89-2.21H100a4.88,4.88,0,0,0-3.42,1.29,4.43,4.43,0,0,0-1.44,3.4v45.55a4.47,4.47,0,0,0,1.43,3.35,5.12,5.12,0,0,0,6.92,0,4.53,4.53,0,0,0,1.38-3.34V404h8.47l11.8,18a4.81,4.81,0,0,0,4.16,2.21,4.74,4.74,0,0,0,3.4-1.24A4.15,4.15,0,0,0,134,419.9a5.19,5.19,0,0,0-.9-2.87Zm-.53-14.55a7.11,7.11,0,0,1-2.68,5.78,10.68,10.68,0,0,1-7.14,2.31h-7.84v-17h7.84a10.07,10.07,0,0,1,7.1,2.51A8.17,8.17,0,0,1,122.51,387.07Z"/><path id="_Compound_Path_10" data-name="&lt;Compound Path&gt;" class="cls-4" d="M226,372.22a33.71,33.71,0,0,0-30.21,0,25.94,25.94,0,0,0-10.39,10,30.5,30.5,0,0,0,0,29.08,25.87,25.87,0,0,0,10.39,10,33.79,33.79,0,0,0,30.25,0,26.19,26.19,0,0,0,10.38-10,30.25,30.25,0,0,0,0-29.09A26.22,26.22,0,0,0,226,372.22Zm4.7,24.53a19.76,19.76,0,0,1-2.53,9.91,18.47,18.47,0,0,1-7,7,21.58,21.58,0,0,1-20.42,0,18.45,18.45,0,0,1-7-7,20.68,20.68,0,0,1,0-19.81,18.28,18.28,0,0,1,7-7,22,22,0,0,1,20.5,0,18.29,18.29,0,0,1,7,7A19.76,19.76,0,0,1,230.72,396.76Z"/><path id="_Path_5" data-name="&lt;Path&gt;" class="cls-4" d="M347.62,369.32a4.77,4.77,0,0,0-4.27,2.46L324,409.84,304,371.79a5,5,0,0,0-7.7-1.12A4.47,4.47,0,0,0,294.9,374v45.55a4.47,4.47,0,0,0,1.43,3.35,5.07,5.07,0,0,0,6.87,0,4.47,4.47,0,0,0,1.43-3.35v-28l14.62,27.92a4.73,4.73,0,0,0,4.45,2.74,4.89,4.89,0,0,0,4.16-2.27L342.76,391v28.52a4.47,4.47,0,0,0,1.43,3.35,5,5,0,0,0,6.82,0,4.42,4.42,0,0,0,1.48-3.37V374a4.48,4.48,0,0,0-1.43-3.35A4.81,4.81,0,0,0,347.62,369.32Z"/></g><path id="_Compound_Path_11" data-name="&lt;Compound Path&gt;" class="cls-4" d="M507.73,372.25a31.37,31.37,0,0,0-15.12-3.59H479.53A5,5,0,0,0,476,370a4.54,4.54,0,0,0-1.48,3.48v46.67a4.58,4.58,0,0,0,1.46,3.43,4.93,4.93,0,0,0,3.52,1.37h13.09a31.37,31.37,0,0,0,15.12-3.59,26.2,26.2,0,0,0,10.38-10,30.28,30.28,0,0,0,0-29A26.27,26.27,0,0,0,507.73,372.25Zm4.42,24.51a20.34,20.34,0,0,1-2.48,10.05,17.5,17.5,0,0,1-6.9,6.87,20.73,20.73,0,0,1-10.15,2.47h-8.11V377.44h8.11a20.74,20.74,0,0,1,10.15,2.47,17.58,17.58,0,0,1,6.9,6.84A20.15,20.15,0,0,1,512.15,396.76Z"/><path id="_Compound_Path_12" data-name="&lt;Compound Path&gt;" class="cls-4" d="M597.42,371.84a4.7,4.7,0,0,0-4.68-3.19,4.88,4.88,0,0,0-4.66,3.14l-20.34,46.29a5.53,5.53,0,0,0-.45,2,4.67,4.67,0,0,0,1.4,3.37,4.73,4.73,0,0,0,3.51,1.43,5,5,0,0,0,2.67-.77,5.14,5.14,0,0,0,1.92-2.18l3.8-8.91h24.35l3.74,8.9a4.58,4.58,0,0,0,1.91,2.19,5.16,5.16,0,0,0,2.69.76,4.93,4.93,0,0,0,3.52-1.37,4.5,4.5,0,0,0,1.46-3.37,5.4,5.4,0,0,0-.47-2Zm4,32.86h-17.2l8.69-20.2Z"/><path id="_Path_6" data-name="&lt;Path&gt;" class="cls-4" d="M699.82,368.65H661.13a4.66,4.66,0,0,0-3.34,1.27,4.61,4.61,0,0,0,0,6.53,4.67,4.67,0,0,0,3.34,1.27h14.4v42.41a4.58,4.58,0,0,0,1.46,3.43,5.2,5.2,0,0,0,7,0,4.58,4.58,0,0,0,1.47-3.44V377.71h14.33a4.66,4.66,0,0,0,3.34-1.27,4.61,4.61,0,0,0,0-6.52A4.66,4.66,0,0,0,699.82,368.65Z"/><path id="_Path_7" data-name="&lt;Path&gt;" class="cls-4" d="M943.48,368.65H904.8a4.66,4.66,0,0,0-3.34,1.27,4.61,4.61,0,0,0,0,6.53,4.67,4.67,0,0,0,3.34,1.27h14.4v42.41a4.58,4.58,0,0,0,1.46,3.43,5.2,5.2,0,0,0,7,0,4.58,4.58,0,0,0,1.47-3.44V377.71h14.33a4.66,4.66,0,0,0,3.34-1.27,4.61,4.61,0,0,0,0-6.52A4.66,4.66,0,0,0,943.48,368.65Z"/><path id="_Path_8" data-name="&lt;Path&gt;" class="cls-4" d="M1207.29,368.66H1168.6a4.66,4.66,0,0,0-3.34,1.27,4.61,4.61,0,0,0,0,6.53,4.67,4.67,0,0,0,3.34,1.27H1183v42.41a4.58,4.58,0,0,0,1.46,3.43,5.2,5.2,0,0,0,7,0,4.58,4.58,0,0,0,1.47-3.44V377.72h14.33a4.66,4.66,0,0,0,3.34-1.27,4.61,4.61,0,0,0,0-6.52A4.66,4.66,0,0,0,1207.29,368.66Z"/><path id="_Path_9" data-name="&lt;Path&gt;" class="cls-4" d="M1582.95,368.69h-38.69a4.66,4.66,0,0,0-3.34,1.27,4.61,4.61,0,0,0,0,6.53,4.67,4.67,0,0,0,3.34,1.27h14.4v42.41a4.58,4.58,0,0,0,1.46,3.43,5.2,5.2,0,0,0,7,0,4.58,4.58,0,0,0,1.47-3.44V377.75h14.33a4.66,4.66,0,0,0,3.34-1.27,4.61,4.61,0,0,0,0-6.52A4.66,4.66,0,0,0,1582.95,368.69Z"/><path id="_Compound_Path_13" data-name="&lt;Compound Path&gt;" class="cls-4" d="M772.3,371.84a4.7,4.7,0,0,0-4.68-3.19,4.88,4.88,0,0,0-4.66,3.14l-20.34,46.29a5.53,5.53,0,0,0-.45,2,4.67,4.67,0,0,0,1.4,3.37,4.73,4.73,0,0,0,3.51,1.43,5,5,0,0,0,2.67-.77,5.14,5.14,0,0,0,1.92-2.18l3.81-8.91h24.35l3.74,8.9a4.58,4.58,0,0,0,1.91,2.19,5.17,5.17,0,0,0,2.69.76,4.93,4.93,0,0,0,3.52-1.37,4.5,4.5,0,0,0,1.46-3.37,5.4,5.4,0,0,0-.47-2Zm4,32.86h-17.2l8.69-20.2Z"/><path id="_Compound_Path_14" data-name="&lt;Compound Path&gt;" class="cls-4" d="M1035.42,372.22a33.71,33.71,0,0,0-30.21,0,25.94,25.94,0,0,0-10.39,10,30.5,30.5,0,0,0,0,29.08,25.87,25.87,0,0,0,10.39,10,33.79,33.79,0,0,0,30.25,0,26.19,26.19,0,0,0,10.38-10,30.25,30.25,0,0,0,0-29.09A26.22,26.22,0,0,0,1035.42,372.22Zm4.7,24.53a19.76,19.76,0,0,1-2.53,9.91,18.47,18.47,0,0,1-7,7,21.58,21.58,0,0,1-20.42,0,18.46,18.46,0,0,1-7-7,20.68,20.68,0,0,1,0-19.81,18.29,18.29,0,0,1,7-7,22,22,0,0,1,20.5,0,18.3,18.3,0,0,1,7,7A19.76,19.76,0,0,1,1040.12,396.76Z"/><path id="_Compound_Path_15" data-name="&lt;Compound Path&gt;" class="cls-4" d="M1289.86,401.6a16.61,16.61,0,0,0,6.12-5.37,15.75,15.75,0,0,0,2.73-9.1,17.38,17.38,0,0,0-2.45-9.18,16.68,16.68,0,0,0-6.86-6.26,21.6,21.6,0,0,0-9.83-2.2h-12.63a4.85,4.85,0,0,0-3.4,1.28,4.41,4.41,0,0,0-1.43,3.38v45.28a4.44,4.44,0,0,0,1.42,3.33,5.09,5.09,0,0,0,6.88,0,4.5,4.5,0,0,0,1.37-3.32V404h8.42l11.73,17.93a4.78,4.78,0,0,0,4.14,2.2,4.72,4.72,0,0,0,3.38-1.23,4.13,4.13,0,0,0,1.31-3.1,5.16,5.16,0,0,0-.89-2.86Zm-.53-14.47a7.07,7.07,0,0,1-2.66,5.74,10.62,10.62,0,0,1-7.1,2.3h-7.8V378.29h7.8a10,10,0,0,1,7.06,2.5A8.12,8.12,0,0,1,1289.32,387.14Z"/><path id="_Path_10" data-name="&lt;Path&gt;" class="cls-4" d="M1394,369.5a4.85,4.85,0,0,0-3.4,1.28,4.41,4.41,0,0,0-1.44,3.38v31.23a9.71,9.71,0,0,1-1.72,5.68,11.68,11.68,0,0,1-4.89,4,17.43,17.43,0,0,1-7.3,1.47,18.7,18.7,0,0,1-7.63-1.47,12.05,12.05,0,0,1-5.06-4,9.45,9.45,0,0,1-1.78-5.67V374.16a4.47,4.47,0,0,0-1.38-3.37,5.19,5.19,0,0,0-6.85,0,4.41,4.41,0,0,0-1.44,3.38v31.23a17.75,17.75,0,0,0,3.12,10.3,20.56,20.56,0,0,0,8.62,7,29.76,29.76,0,0,0,12.38,2.48,28.29,28.29,0,0,0,12-2.49,20.12,20.12,0,0,0,8.41-7,18.1,18.1,0,0,0,3-10.26V374.16a4.47,4.47,0,0,0-1.39-3.37A4.72,4.72,0,0,0,1394,369.5Z"/><path id="_Path_11" data-name="&lt;Path&gt;" class="cls-4" d="M1490.4,396.91c-3.26-2.85-7.88-4.58-13.72-5.14-4.8-.47-8.13-1.42-9.9-2.83a6,6,0,0,1-2.5-4.89,5.13,5.13,0,0,1,2.72-4.7,15.61,15.61,0,0,1,8-1.81,13.67,13.67,0,0,1,6.62,1.42,11.88,11.88,0,0,1,4.28,4.13,4.7,4.7,0,0,0,1.86,1.83,5.2,5.2,0,0,0,2.54.65,4.66,4.66,0,0,0,2.48-.67,4,4,0,0,0,1.93-3.39,5.57,5.57,0,0,0-1-3.06,20.21,20.21,0,0,0-18.18-9.56,30.11,30.11,0,0,0-10.41,1.71,17.22,17.22,0,0,0-7.52,5.11,12.46,12.46,0,0,0-2.83,8.14,13.72,13.72,0,0,0,5.42,11.05c3.49,2.84,8.31,4.56,14.32,5.11,3.94.38,6.88,1.39,8.73,3a7.19,7.19,0,0,1,2.68,5.63,6,6,0,0,1-3.1,5.32,15.26,15.26,0,0,1-8.28,2.13,17.45,17.45,0,0,1-7.69-1.69,9.06,9.06,0,0,1-4.42-3.84,5.09,5.09,0,0,0-2-2.22,5.17,5.17,0,0,0-2.77-.81,3.73,3.73,0,0,0-1,.1,5.16,5.16,0,0,0-2.66,1.35,3.63,3.63,0,0,0-1.12,2.61,4.59,4.59,0,0,0,.45,1.82,17.47,17.47,0,0,0,8.21,8.26,27.4,27.4,0,0,0,12.94,3.08,28.62,28.62,0,0,0,10.14-1.78,17.68,17.68,0,0,0,7.77-5.52,14.08,14.08,0,0,0,3-9A14.68,14.68,0,0,0,1490.4,396.91Z"/></g></g></g></g></svg>